<?xml version="1.0" standalone="no"?>
<!DOCTYPE svg PUBLIC "-//W3C//DTD SVG 20010904//EN"
 "http://www.w3.org/TR/2001/REC-SVG-20010904/DTD/svg10.dtd">
<svg version="1.0" xmlns="http://www.w3.org/2000/svg"
 width="512.000000pt" height="512.000000pt" viewBox="0 0 512.000000 512.000000"
 preserveAspectRatio="xMidYMid meet">
<metadata>
Created by potrace 1.14, written by Peter Selinger 2001-2017
</metadata>
<g transform="translate(0.000000,512.000000) scale(0.100000,-0.100000)"
fill="#000000" stroke="none">
<path d="M1269 4755 c-375 -59 -661 -228 -889 -528 -244 -320 -386 -797 -379
-1273 10 -627 248 -1061 569 -1037 94 7 263 72 390 152 58 36 345 227 570 379
74 51 137 89 142 84 10 -10 44 -74 168 -317 67 -133 118 -247 137 -310 61
-197 68 -251 67 -475 -1 -148 -5 -180 -34 -310 -52 -228 -43 -345 38 -489 67
-121 199 -223 341 -265 74 -22 236 -16 311 12 84 31 115 49 172 102 131 119
216 349 233 630 5 87 5 375 0 425 -34 315 -143 623 -312 885 -31 47 -58 87
-62 90 -4 3 -20 23 -36 46 -27 37 -59 73 -211 243 -23 25 -58 64 -77 86 l-35
40 286 141 c301 149 401 210 503 309 67 64 113 148 124 222 6 42 -10 169 -24
188 -4 5 -14 26 -21 45 -78 199 -360 478 -642 636 -288 160 -533 245 -829 288
-130 19 -380 19 -500 1z"/>
<path d="M4185 2980 c-227 -48 -446 -188 -633 -403 -59 -68 -145 -201 -188
-292 -105 -223 -104 -394 5 -469 38 -26 134 -61 196 -70 93 -14 223 -31 320
-40 76 -8 128 -16 132 -20 11 -11 -119 -268 -167 -331 -22 -27 -114 -124 -205
-214 -212 -211 -251 -280 -211 -376 19 -45 59 -84 135 -134 110 -71 204 -80
310 -29 129 62 283 265 372 491 11 28 27 66 34 82 31 69 104 343 105 392 0 12
4 24 9 27 4 3 62 -13 127 -35 148 -50 254 -78 319 -85 189 -21 279 132 271
456 -4 149 -20 234 -71 386 -106 318 -319 566 -551 643 -76 25 -239 37 -309
21z"/>
</g>
</svg>
